<?xml version="1.0" encoding="utf-8"?>
<!-- Generator: Adobe Illustrator 16.0.3, SVG Export Plug-In . SVG Version: 6.00 Build 0)  -->
<!DOCTYPE svg PUBLIC "-//W3C//DTD SVG 1.1//EN" "http://www.w3.org/Graphics/SVG/1.1/DTD/svg11.dtd">
<svg version="1.1" id="Layer_1" xmlns="http://www.w3.org/2000/svg" xmlns:xlink="http://www.w3.org/1999/xlink" x="0px" y="0px"
	 width="42px" height="42px" viewBox="0 0 42 42" enable-background="new 0 0 42 42" xml:space="preserve">
<g>
	<rect x="-980.5" y="-90.5" fill="#FFFFFF" stroke="#FF0000" stroke-miterlimit="10" width="41" height="41"/>
	<polygon fill="#FF0000" points="-955,-71 -955,-86 -965,-86 -965,-71 -969.898,-71 -964.949,-62.383 -960,-53.707 
		-955.051,-62.299 -950.102,-71 	"/>
	<rect x="-980.5" y="-191.5" fill="#FFFFFF" stroke="#FF0000" stroke-miterlimit="10" width="41" height="41"/>
	<polygon fill="#FF0000" points="-950.102,-170 -955.051,-178.672 -960,-187.293 -964.949,-178.647 -969.898,-170 -965,-170 
		-965,-155 -955,-155 -955,-170 	"/>
	<rect x="-1029.5" y="-142.5" fill="#FFFFFF" stroke="#FF0000" stroke-miterlimit="10" width="41" height="41"/>
	<polygon fill="#FF0000" points="-993,-127 -1008,-127 -1008,-132.398 -1016.523,-127.449 -1025.059,-122.5 -1016.521,-117.551 
		-1008,-112.602 -1008,-117 -993,-117 	"/>
	<rect x="-932.5" y="-142.5" fill="#FFFFFF" stroke="#FF0000" stroke-miterlimit="10" width="41" height="41"/>
	<polygon fill="#FF0000" points="-904.289,-127.449 -913,-132.398 -913,-127 -928,-127 -928,-117 -913,-117 -913,-112.602 
		-904.172,-117.551 -895.367,-122.5 	"/>
</g>
<rect id="_x3C_Slice_x3E_" x="-982" y="-192" fill="none" width="43" height="42"/>
<rect id="_x3C_Slice_x3E__1_" x="-1007" y="-202" fill="none" width="25" height="10"/>
<rect id="_x3C_Slice_x3E__2_" x="-982" y="-192" fill="none" width="43" height="42"/>
<rect id="_x3C_Slice_x3E__3_" x="-982" y="-91" fill="none" width="43" height="42"/>
<rect id="_x3C_Slice_x3E__4_" x="-1030" y="-143" fill="none" width="42" height="42"/>
<rect id="_x3C_Slice_x3E__5_" x="-933" y="-143" fill="none" width="42" height="42"/>
<g>
	<rect x="0.5" y="101.5" fill="#FFFFFF" stroke="#000000" stroke-miterlimit="10" width="41" height="41"/>
	<polygon points="26,121 26,106 16,106 16,121 11.102,121 16.051,129.617 21,138.293 25.949,129.701 30.898,121 	"/>
	<rect x="0.5" y="0.5" fill="#FFFFFF" stroke="#000000" stroke-miterlimit="10" width="41" height="41"/>
	<polygon points="30.898,22 25.949,13.328 21,4.707 16.051,13.353 11.102,22 16,22 16,37 26,37 26,22 	"/>
	<rect x="-48.5" y="49.5" fill="#FFFFFF" stroke="#000000" stroke-miterlimit="10" width="41" height="41"/>
	<polygon points="-12,65 -27,65 -27,59.602 -35.523,64.551 -44.059,69.5 -35.521,74.449 -27,79.398 -27,75 -12,75 	"/>
	<rect x="48.5" y="49.5" fill="#FFFFFF" stroke="#000000" stroke-miterlimit="10" width="41" height="41"/>
	<polygon points="76.711,64.551 68,59.602 68,65 53,65 53,75 68,75 68,79.398 76.828,74.449 85.633,69.5 	"/>
</g>
</svg>
