<?xml version="1.0" encoding="utf-8"?>
<!-- Generator: Adobe Illustrator 16.0.3, SVG Export Plug-In . SVG Version: 6.00 Build 0)  -->
<!DOCTYPE svg PUBLIC "-//W3C//DTD SVG 1.1//EN" "http://www.w3.org/Graphics/SVG/1.1/DTD/svg11.dtd">
<svg version="1.1" id="Layer_1" xmlns="http://www.w3.org/2000/svg" xmlns:xlink="http://www.w3.org/1999/xlink" x="0px" y="0px"
	 width="42px" height="42px" viewBox="0 0 42 42" enable-background="new 0 0 42 42" xml:space="preserve">
<g>
	<rect x="-47.517" y="52.654" fill="#FFFFFF" stroke="#FF0000" stroke-miterlimit="10" width="41" height="41"/>
	<polygon fill="#FF0000" points="-22.017,72.154 -22.017,57.154 -32.017,57.154 -32.017,72.154 -36.915,72.154 -31.966,80.771 
		-27.017,89.447 -22.067,80.855 -17.118,72.154 	"/>
	<rect x="-47.517" y="-48.346" fill="#FFFFFF" stroke="#FF0000" stroke-miterlimit="10" width="41" height="41"/>
	<polygon fill="#FF0000" points="-17.118,-26.846 -22.067,-35.518 -27.017,-44.139 -31.966,-35.493 -36.915,-26.846 
		-32.017,-26.846 -32.017,-11.846 -22.017,-11.846 -22.017,-26.846 	"/>
	<rect x="-96.517" y="0.654" fill="#FFFFFF" stroke="#FF0000" stroke-miterlimit="10" width="41" height="41"/>
	<polygon fill="#FF0000" points="-60.017,16.154 -75.017,16.154 -75.017,10.756 -83.54,15.705 -92.076,20.654 -83.538,25.604 
		-75.017,30.552 -75.017,26.154 -60.017,26.154 	"/>
	<rect x="0.483" y="0.654" fill="#FFFFFF" stroke="#FF0000" stroke-miterlimit="10" width="41" height="41"/>
	<polygon fill="#FF0000" points="28.694,15.705 19.983,10.756 19.983,16.154 4.983,16.154 4.983,26.154 19.983,26.154 
		19.983,30.552 28.812,25.604 37.616,20.654 	"/>
</g>
<rect id="_x3C_Slice_x3E_" x="-982" y="-192" fill="none" width="43" height="42"/>
<rect id="_x3C_Slice_x3E__1_" x="-1007" y="-202" fill="none" width="25" height="10"/>
<rect id="_x3C_Slice_x3E__2_" x="-982" y="-192" fill="none" width="43" height="42"/>
<rect id="_x3C_Slice_x3E__3_" x="-982" y="-91" fill="none" width="43" height="42"/>
<rect id="_x3C_Slice_x3E__4_" x="-1030" y="-143" fill="none" width="42" height="42"/>
<rect id="_x3C_Slice_x3E__5_" x="-933" y="-143" fill="none" width="42" height="42"/>
<g>
	<rect x="174.5" y="22.574" fill="#FFFFFF" stroke="#000000" stroke-miterlimit="10" width="41" height="41"/>
	<polygon points="200,42.074 200,27.074 190,27.074 190,42.074 185.102,42.074 190.051,50.691 195,59.367 199.949,50.775 
		204.898,42.074 	"/>
	<rect x="174.5" y="-78.426" fill="#FFFFFF" stroke="#000000" stroke-miterlimit="10" width="41" height="41"/>
	<polygon points="204.898,-56.926 199.949,-65.598 195,-74.219 190.051,-65.573 185.102,-56.926 190,-56.926 190,-41.926 
		200,-41.926 200,-56.926 	"/>
	<rect x="125.5" y="-29.426" fill="#FFFFFF" stroke="#000000" stroke-miterlimit="10" width="41" height="41"/>
	<polygon points="162,-13.926 147,-13.926 147,-19.324 138.477,-14.375 129.941,-9.426 138.479,-4.477 147,0.473 147,-3.926 
		162,-3.926 	"/>
	<rect x="222.5" y="-29.426" fill="#FFFFFF" stroke="#000000" stroke-miterlimit="10" width="41" height="41"/>
	<polygon points="250.711,-14.375 242,-19.324 242,-13.926 227,-13.926 227,-3.926 242,-3.926 242,0.473 250.828,-4.477 
		259.633,-9.426 	"/>
</g>
</svg>
