<?xml version="1.0" encoding="utf-8"?>
<!-- Generator: Adobe Illustrator 16.0.3, SVG Export Plug-In . SVG Version: 6.00 Build 0)  -->
<!DOCTYPE svg PUBLIC "-//W3C//DTD SVG 1.1//EN" "http://www.w3.org/Graphics/SVG/1.1/DTD/svg11.dtd">
<svg version="1.1" id="Layer_1" xmlns="http://www.w3.org/2000/svg" xmlns:xlink="http://www.w3.org/1999/xlink" x="0px" y="0px"
	 width="42px" height="42px" viewBox="0 0 42 42" enable-background="new 0 0 42 42" xml:space="preserve">
<g>
	<rect x="-1042.5" y="168.5" fill="#FFFFFF" stroke="#FF0000" stroke-miterlimit="10" width="41" height="41"/>
	<polygon fill="#FF0000" points="-1017,188 -1017,173 -1027,173 -1027,188 -1031.898,188 -1026.949,196.617 -1022,205.293 
		-1017.051,196.701 -1012.102,188 	"/>
	<rect x="-1042.5" y="67.5" fill="#FFFFFF" stroke="#FF0000" stroke-miterlimit="10" width="41" height="41"/>
	<polygon fill="#FF0000" points="-1012.102,89 -1017.051,80.328 -1022,71.707 -1026.949,80.353 -1031.898,89 -1027,89 -1027,104 
		-1017,104 -1017,89 	"/>
	<rect x="-1091.5" y="116.5" fill="#FFFFFF" stroke="#FF0000" stroke-miterlimit="10" width="41" height="41"/>
	<polygon fill="#FF0000" points="-1055,132 -1070,132 -1070,126.602 -1078.523,131.551 -1087.059,136.5 -1078.521,141.449 
		-1070,146.398 -1070,142 -1055,142 	"/>
	<rect x="-994.5" y="116.5" fill="#FFFFFF" stroke="#FF0000" stroke-miterlimit="10" width="41" height="41"/>
	<polygon fill="#FF0000" points="-966.289,131.551 -975,126.602 -975,132 -990,132 -990,142 -975,142 -975,146.398 
		-966.172,141.449 -957.367,136.5 	"/>
</g>
<rect id="_x3C_Slice_x3E_" x="-1044" y="67" fill="none" width="43" height="42"/>
<rect id="_x3C_Slice_x3E__1_" x="-1069" y="57" fill="none" width="25" height="10"/>
<rect id="_x3C_Slice_x3E__2_" x="-1044" y="67" fill="none" width="43" height="42"/>
<rect id="_x3C_Slice_x3E__3_" x="-1044" y="168" fill="none" width="43" height="42"/>
<rect id="_x3C_Slice_x3E__4_" x="-1092" y="116" fill="none" width="42" height="42"/>
<rect id="_x3C_Slice_x3E__5_" x="-995" y="116" fill="none" width="42" height="42"/>
<g>
	<rect x="-61.5" y="360.5" fill="#FFFFFF" stroke="#000000" stroke-miterlimit="10" width="41" height="41"/>
	<polygon points="-36,380 -36,365 -46,365 -46,380 -50.898,380 -45.949,388.617 -41,397.293 -36.051,388.701 -31.102,380 	"/>
	<rect x="-61.5" y="259.5" fill="#FFFFFF" stroke="#000000" stroke-miterlimit="10" width="41" height="41"/>
	<polygon points="-31.102,281 -36.051,272.328 -41,263.707 -45.949,272.353 -50.898,281 -46,281 -46,296 -36,296 -36,281 	"/>
	<rect x="-110.5" y="308.5" fill="#FFFFFF" stroke="#000000" stroke-miterlimit="10" width="41" height="41"/>
	<polygon points="-74,324 -89,324 -89,318.602 -97.523,323.551 -106.059,328.5 -97.521,333.449 -89,338.398 -89,334 -74,334 	"/>
	<rect x="-13.5" y="308.5" fill="#FFFFFF" stroke="#000000" stroke-miterlimit="10" width="41" height="41"/>
	<polygon points="14.711,323.551 6,318.602 6,324 -9,324 -9,334 6,334 6,338.398 14.828,333.449 23.633,328.5 	"/>
</g>
<g>
	<rect x="0.5" y="0.5" fill="#FFFFFF" stroke="#000000" stroke-miterlimit="10" width="41" height="41"/>
	<polygon points="26,20 26,5 16,5 16,20 11.102,20 16.051,28.617 21,37.293 25.949,28.701 30.898,20 	"/>
	<rect x="0.5" y="-100.5" fill="#FFFFFF" stroke="#000000" stroke-miterlimit="10" width="41" height="41"/>
	<polygon points="30.898,-79 25.949,-87.672 21,-96.293 16.051,-87.647 11.102,-79 16,-79 16,-64 26,-64 26,-79 	"/>
	<rect x="-48.5" y="-51.5" fill="#FFFFFF" stroke="#000000" stroke-miterlimit="10" width="41" height="41"/>
	<polygon points="-12,-36 -27,-36 -27,-41.398 -35.523,-36.449 -44.059,-31.5 -35.521,-26.551 -27,-21.602 -27,-26 -12,-26 	"/>
	<rect x="48.5" y="-51.5" fill="#FFFFFF" stroke="#000000" stroke-miterlimit="10" width="41" height="41"/>
	<polygon points="76.711,-36.449 68,-41.398 68,-36 53,-36 53,-26 68,-26 68,-21.602 76.828,-26.551 85.633,-31.5 	"/>
</g>
</svg>
